<svg viewBox="0 0 24 24" fill="none" xmlns="http://www.w3.org/2000/svg">
<path fill-rule="evenodd" clip-rule="evenodd" d="M8.41414 6.99992C8.02361 6.6094 7.39045 6.6094 6.99992 6.99992C6.6094 7.39045 6.6094 8.02361 6.99992 8.41414L10.5858 12L7.00002 15.5857C6.60949 15.9762 6.60949 16.6094 7.00002 16.9999C7.39054 17.3904 8.02371 17.3904 8.41423 16.9999L12 13.4142L15.5857 16.9999C15.9762 17.3904 16.6094 17.3904 16.9999 16.9999C17.3904 16.6094 17.3904 15.9762 16.9999 15.5857L13.4142 12L17 8.41414C17.3905 8.02361 17.3905 7.39045 17 6.99992C16.6095 6.6094 15.9763 6.6094 15.5858 6.99992L12 10.5858L8.41414 6.99992Z" fill="currentColor"/>
</svg>
